<svg width="100" height="100" viewBox="0 0 100 100" fill="none" xmlns="http://www.w3.org/2000/svg">
<g clip-path="url(#clip0_1941_1822)">
<path d="M52.2266 53.0229C52.2266 52.1052 52.9705 51.3613 53.8881 51.3613H81.2045C82.0128 51.3613 82.3451 52.3986 81.6872 52.8683L64.7445 64.9631C63.8163 65.6257 63.8163 67.0051 64.7445 67.6678L81.6872 79.7626C82.3451 80.2322 82.0128 81.2695 81.2045 81.2695H53.8881C52.9705 81.2695 52.2266 80.5256 52.2266 79.608V53.0229Z" fill="#A88F79"/>
<path d="M48.6484 79.6104C48.6484 80.9549 47.1349 81.7427 46.0337 80.9714L33.881 72.4598C33.312 72.0613 32.5551 72.0588 31.9835 72.4536L19.6067 81.0027C18.5045 81.764 17.0008 80.9751 17.0008 79.6356V53.129C17.0008 52.2113 17.7447 51.4674 18.6624 51.4674H46.9869C47.9045 51.4674 48.6484 52.2113 48.6484 53.129L48.6484 79.6104Z" fill="#A88F79"/>
<path d="M52.2266 19.6637C52.2266 18.7461 52.9704 18.0022 53.888 18.0021L81.5348 18.0003C82.4389 18.0002 82.6925 19.2402 81.861 19.5951L65.0841 26.7567C64.6444 26.9444 64.4092 27.4265 64.5319 27.8886C64.6744 28.4248 65.2397 28.7298 65.7661 28.5543L68.686 27.581C69.2239 27.4017 69.7795 27.8021 69.7795 28.3692V37.6948C69.7795 38.2619 69.2239 38.6623 68.686 38.483L65.67 37.4776C65.1922 37.3184 64.6779 37.5882 64.5374 38.0718C64.4123 38.5027 64.6285 38.9592 65.0412 39.1353L81.8613 46.3136C82.6928 46.6684 82.4394 47.9084 81.5352 47.9085L53.8882 47.9103C52.9705 47.9104 52.2266 47.1664 52.2266 46.2487V19.6637Z" fill="#A88F79"/>
<path d="M46.042 18.2969C47.144 17.5361 48.6472 18.3249 48.6475 19.6641V46.1709C48.6475 47.0885 47.9039 47.8329 46.9863 47.833H18.6611C17.7437 47.8328 17 47.0884 17 46.1709V19.6895C17.0001 18.3451 18.5141 17.5579 19.6152 18.3291L31.7676 26.8398C32.3366 27.2384 33.0934 27.2415 33.665 26.8467L46.042 18.2969ZM26.9277 37.6689C25.1427 37.6689 23.6954 39.1163 23.6953 40.9014C23.6953 42.6865 25.1426 44.1338 26.9277 44.1338C28.7128 44.1337 30.1602 42.6864 30.1602 40.9014C30.16 39.1164 28.7127 37.669 26.9277 37.6689ZM38.7168 37.6689C36.9317 37.6689 35.4844 39.1163 35.4844 40.9014C35.4844 42.6865 36.9317 44.1338 38.7168 44.1338C40.5018 44.1336 41.9492 42.6864 41.9492 40.9014C41.9492 39.1164 40.5018 37.6691 38.7168 37.6689Z" fill="#A88F79"/>
<mask id="mask0_1941_1822" style="mask-type:alpha" maskUnits="userSpaceOnUse" x="17" y="18" width="32" height="30">
<path d="M46.042 18.2969C47.144 17.5361 48.6472 18.3249 48.6475 19.6641V46.1709C48.6475 47.0885 47.9039 47.8329 46.9863 47.833H18.6611C17.7437 47.8328 17 47.0884 17 46.1709V19.6895C17.0001 18.3451 18.5141 17.5579 19.6152 18.3291L31.7676 26.8398C32.3366 27.2384 33.0934 27.2415 33.665 26.8467L46.042 18.2969ZM26.9277 37.6689C25.1427 37.6689 23.6954 39.1163 23.6953 40.9014C23.6953 42.6865 25.1426 44.1338 26.9277 44.1338C28.7128 44.1337 30.1602 42.6864 30.1602 40.9014C30.16 39.1164 28.7127 37.669 26.9277 37.6689ZM38.7168 37.6689C36.9317 37.6689 35.4844 39.1163 35.4844 40.9014C35.4844 42.6865 36.9317 44.1338 38.7168 44.1338C40.5018 44.1336 41.9492 42.6864 41.9492 40.9014C41.9492 39.1164 40.5018 37.6691 38.7168 37.6689Z" fill="white"/>
</mask>
<g mask="url(#mask0_1941_1822)">
<circle cx="45.1849" cy="15.7708" r="24.599" fill="#5E5E5E"/>
<circle cx="23.117" cy="25.2596" r="10.242" fill="#CCAE94"/>
</g>
</g>
<defs>
<clipPath id="clip0_1941_1822">
<rect width="66" height="64" fill="white" transform="translate(17 18)"/>
</clipPath>
</defs>
</svg>
